<mxfile host="Electron" modified="2023-11-09T14:01:24.744Z" agent="Mozilla/5.0 (Macintosh; Intel Mac OS X 10_15_7) AppleWebKit/537.36 (KHTML, like Gecko) draw.io/22.0.3 Chrome/114.0.5735.289 Electron/25.8.4 Safari/537.36" etag="7HlLU8aML6TrK5n0LBlX" version="22.0.3" type="device" pages="2">
  <diagram name="Page-1" id="XuGeWDecFlch1JsXA4oA">
    <mxGraphModel dx="1026" dy="1222" grid="0" gridSize="10" guides="1" tooltips="1" connect="1" arrows="1" fold="1" page="0" pageScale="1" pageWidth="827" pageHeight="1169" math="0" shadow="0">
      <root>
        <mxCell id="0" />
        <mxCell id="1" parent="0" />
        <mxCell id="-oJWGvlFmYXCp4jstUKO-3" value="Food" style="ellipse;whiteSpace=wrap;html=1;aspect=fixed;fontSize=16;fillColor=#F8E4E2;strokeColor=#b85450;fillStyle=zigzag;fontFamily=Comic Sans MS;fontColor=#b95450;sketch=1;curveFitting=1;jiggle=2;" parent="1" vertex="1">
          <mxGeometry x="207" y="140" width="80" height="80" as="geometry" />
        </mxCell>
        <mxCell id="-oJWGvlFmYXCp4jstUKO-7" style="rounded=0;orthogonalLoop=1;jettySize=auto;html=1;entryX=1;entryY=0.5;entryDx=0;entryDy=0;fontSize=11;startSize=8;endSize=8;exitX=0.5;exitY=1;exitDx=0;exitDy=0;edgeStyle=orthogonalEdgeStyle;curved=1;endArrow=classic;endFill=1;sketch=1;curveFitting=1;jiggle=2;fontFamily=Comic Sans MS;spacing=2;fillColor=#fff2cc;strokeColor=#d6b656;" parent="1" source="-oJWGvlFmYXCp4jstUKO-4" target="-oJWGvlFmYXCp4jstUKO-3" edge="1">
          <mxGeometry relative="1" as="geometry" />
        </mxCell>
        <mxCell id="-oJWGvlFmYXCp4jstUKO-8" value="Contained" style="edgeLabel;html=1;align=center;verticalAlign=middle;resizable=0;points=[];fontSize=16;fontFamily=Comic Sans MS;fontColor=#d6b656;" parent="-oJWGvlFmYXCp4jstUKO-7" vertex="1" connectable="0">
          <mxGeometry x="-0.3876" y="-13" relative="1" as="geometry">
            <mxPoint x="-58" y="-6" as="offset" />
          </mxGeometry>
        </mxCell>
        <mxCell id="-oJWGvlFmYXCp4jstUKO-4" value="Plate" style="ellipse;whiteSpace=wrap;html=1;aspect=fixed;fontSize=16;fillColor=#F8E4E2;strokeColor=#b85450;fillStyle=zigzag;fontFamily=Comic Sans MS;fontColor=#b95450;sketch=1;curveFitting=1;jiggle=2;" parent="1" vertex="1">
          <mxGeometry x="402" y="13" width="80" height="80" as="geometry" />
        </mxCell>
        <mxCell id="-oJWGvlFmYXCp4jstUKO-12" style="edgeStyle=none;curved=1;rounded=0;orthogonalLoop=1;jettySize=auto;html=1;fontSize=11;startSize=8;endSize=8;sketch=1;curveFitting=1;jiggle=2;fontFamily=Comic Sans MS;spacing=2;fillColor=#fff2cc;strokeColor=#d6b656;" parent="1" source="-oJWGvlFmYXCp4jstUKO-5" target="-oJWGvlFmYXCp4jstUKO-3" edge="1">
          <mxGeometry relative="1" as="geometry" />
        </mxCell>
        <mxCell id="-oJWGvlFmYXCp4jstUKO-14" value="Is" style="edgeLabel;html=1;align=center;verticalAlign=middle;resizable=0;points=[];fontSize=16;fontFamily=Comic Sans MS;fontColor=#d6b656;" parent="-oJWGvlFmYXCp4jstUKO-12" vertex="1" connectable="0">
          <mxGeometry x="-0.0014" relative="1" as="geometry">
            <mxPoint as="offset" />
          </mxGeometry>
        </mxCell>
        <mxCell id="-oJWGvlFmYXCp4jstUKO-15" style="edgeStyle=orthogonalEdgeStyle;rounded=0;orthogonalLoop=1;jettySize=auto;html=1;fontSize=11;startSize=8;endSize=8;sketch=1;curveFitting=1;jiggle=2;fontFamily=Comic Sans MS;spacing=2;fillColor=#fff2cc;strokeColor=#d6b656;endArrow=classic;endFill=1;curved=1;" parent="1" source="-oJWGvlFmYXCp4jstUKO-5" target="-oJWGvlFmYXCp4jstUKO-4" edge="1">
          <mxGeometry relative="1" as="geometry" />
        </mxCell>
        <mxCell id="-oJWGvlFmYXCp4jstUKO-16" value="Served on" style="edgeLabel;html=1;align=center;verticalAlign=middle;resizable=0;points=[];fontSize=16;fontFamily=Comic Sans MS;fontColor=#d6b656;" parent="-oJWGvlFmYXCp4jstUKO-15" vertex="1" connectable="0">
          <mxGeometry x="-0.1547" y="2" relative="1" as="geometry">
            <mxPoint x="8" y="-2" as="offset" />
          </mxGeometry>
        </mxCell>
        <mxCell id="-oJWGvlFmYXCp4jstUKO-5" value="Lamb" style="ellipse;whiteSpace=wrap;html=1;aspect=fixed;fontSize=16;fillColor=#F8E4E2;strokeColor=#b85450;fillStyle=zigzag;fontFamily=Comic Sans MS;fontColor=#b95450;sketch=1;curveFitting=1;jiggle=2;" parent="1" vertex="1">
          <mxGeometry x="100" y="13" width="80" height="80" as="geometry" />
        </mxCell>
        <mxCell id="-oJWGvlFmYXCp4jstUKO-9" style="rounded=0;orthogonalLoop=1;jettySize=auto;html=1;fontSize=11;startSize=8;endSize=8;exitX=1;exitY=0.5;exitDx=0;exitDy=0;edgeStyle=orthogonalEdgeStyle;curved=1;endArrow=none;endFill=0;sketch=1;curveFitting=1;jiggle=2;fontFamily=Comic Sans MS;spacing=2;fillColor=#fff2cc;strokeColor=#d6b656;" parent="1" source="-oJWGvlFmYXCp4jstUKO-6" target="-oJWGvlFmYXCp4jstUKO-4" edge="1">
          <mxGeometry relative="1" as="geometry" />
        </mxCell>
        <mxCell id="-oJWGvlFmYXCp4jstUKO-10" value="Passed to consume &lt;br&gt;more food" style="edgeLabel;html=1;align=center;verticalAlign=middle;resizable=0;points=[];fontSize=16;fontFamily=Comic Sans MS;fontColor=#d6b656;" parent="-oJWGvlFmYXCp4jstUKO-9" vertex="1" connectable="0">
          <mxGeometry x="-0.1792" y="-25" relative="1" as="geometry">
            <mxPoint x="3" y="15" as="offset" />
          </mxGeometry>
        </mxCell>
        <mxCell id="-oJWGvlFmYXCp4jstUKO-11" style="edgeStyle=orthogonalEdgeStyle;curved=1;rounded=0;orthogonalLoop=1;jettySize=auto;html=1;fontSize=11;startSize=8;endSize=8;endArrow=classic;endFill=1;sketch=1;curveFitting=1;jiggle=2;fontFamily=Comic Sans MS;spacing=2;fillColor=#fff2cc;strokeColor=#d6b656;" parent="1" source="-oJWGvlFmYXCp4jstUKO-6" target="-oJWGvlFmYXCp4jstUKO-5" edge="1">
          <mxGeometry relative="1" as="geometry" />
        </mxCell>
        <mxCell id="-oJWGvlFmYXCp4jstUKO-13" value="Eats" style="edgeLabel;html=1;align=center;verticalAlign=middle;resizable=0;points=[];fontSize=16;fontFamily=Comic Sans MS;fontColor=#d6b656;" parent="-oJWGvlFmYXCp4jstUKO-11" vertex="1" connectable="0">
          <mxGeometry x="0.2404" y="2" relative="1" as="geometry">
            <mxPoint x="16" y="16" as="offset" />
          </mxGeometry>
        </mxCell>
        <mxCell id="-oJWGvlFmYXCp4jstUKO-6" value="Mary" style="ellipse;whiteSpace=wrap;html=1;aspect=fixed;fontSize=16;fillColor=#F8E4E2;strokeColor=#b85450;fillStyle=zigzag;fontFamily=Comic Sans MS;fontColor=#b95450;sketch=1;curveFitting=1;jiggle=2;" parent="1" vertex="1">
          <mxGeometry x="249" y="-131" width="80" height="80" as="geometry" />
        </mxCell>
      </root>
    </mxGraphModel>
  </diagram>
  <diagram id="QQHtqteWFPHU6G1sQdef" name="Page-2">
    <mxGraphModel dx="1026" dy="1222" grid="0" gridSize="10" guides="1" tooltips="1" connect="1" arrows="1" fold="1" page="0" pageScale="1" pageWidth="827" pageHeight="1169" math="0" shadow="0">
      <root>
        <mxCell id="0" />
        <mxCell id="1" parent="0" />
        <mxCell id="32EfeAnbv8p_S3MVI69l-69" style="edgeStyle=none;curved=1;rounded=0;orthogonalLoop=1;jettySize=auto;html=1;entryX=0.5;entryY=0;entryDx=0;entryDy=0;fontSize=12;startSize=8;endSize=8;sketch=1;curveFitting=1;jiggle=2;fontColor=#000099;fontStyle=0;fontFamily=Comic Sans MS;" parent="1" source="32EfeAnbv8p_S3MVI69l-1" target="32EfeAnbv8p_S3MVI69l-2" edge="1">
          <mxGeometry relative="1" as="geometry" />
        </mxCell>
        <mxCell id="32EfeAnbv8p_S3MVI69l-1" value="Split the corpus into text chunks" style="rounded=1;whiteSpace=wrap;html=1;fontSize=16;fillColor=#dae8fc;strokeColor=#6c8ebf;fontFamily=Comic Sans MS;sketch=1;curveFitting=1;jiggle=2;fontStyle=0;fontColor=#004C99;" parent="1" vertex="1">
          <mxGeometry x="134" y="17" width="229" height="64" as="geometry" />
        </mxCell>
        <mxCell id="32EfeAnbv8p_S3MVI69l-11" value="" style="edgeStyle=none;curved=1;rounded=0;orthogonalLoop=1;jettySize=auto;html=1;fontSize=12;exitX=0;exitY=0.5;exitDx=0;exitDy=0;fillColor=#fff2cc;strokeColor=#d6b656;strokeWidth=1;sketch=1;curveFitting=1;jiggle=2;" parent="1" source="32EfeAnbv8p_S3MVI69l-21" target="32EfeAnbv8p_S3MVI69l-10" edge="1">
          <mxGeometry relative="1" as="geometry" />
        </mxCell>
        <mxCell id="32EfeAnbv8p_S3MVI69l-42" style="edgeStyle=none;curved=1;rounded=0;orthogonalLoop=1;jettySize=auto;html=1;entryX=0;entryY=0.5;entryDx=0;entryDy=0;fontSize=12;fillColor=#fff2cc;strokeColor=#d6b656;strokeWidth=1;sketch=1;curveFitting=1;jiggle=2;" parent="1" source="32EfeAnbv8p_S3MVI69l-2" target="32EfeAnbv8p_S3MVI69l-17" edge="1">
          <mxGeometry relative="1" as="geometry" />
        </mxCell>
        <mxCell id="32EfeAnbv8p_S3MVI69l-70" style="edgeStyle=none;curved=1;rounded=0;orthogonalLoop=1;jettySize=auto;html=1;fontSize=12;startSize=8;endSize=8;sketch=1;curveFitting=1;jiggle=2;fontColor=#000099;fontStyle=0;fontFamily=Comic Sans MS;" parent="1" source="32EfeAnbv8p_S3MVI69l-2" target="32EfeAnbv8p_S3MVI69l-10" edge="1">
          <mxGeometry relative="1" as="geometry" />
        </mxCell>
        <mxCell id="32EfeAnbv8p_S3MVI69l-2" value="Extract the concepts pairs and the semantic relationship between them" style="rounded=1;whiteSpace=wrap;html=1;fontSize=16;fillColor=#dae8fc;strokeColor=#6c8ebf;fontFamily=Comic Sans MS;sketch=1;curveFitting=1;jiggle=2;fontStyle=0;fontColor=#004C99;" parent="1" vertex="1">
          <mxGeometry x="138.5" y="150.5" width="220" height="97" as="geometry" />
        </mxCell>
        <mxCell id="32EfeAnbv8p_S3MVI69l-6" style="edgeStyle=none;curved=1;rounded=0;orthogonalLoop=1;jettySize=auto;html=1;entryX=0;entryY=0.5;entryDx=0;entryDy=0;entryPerimeter=0;fontSize=12;fillColor=#fff2cc;strokeColor=#d6b656;strokeWidth=1;sketch=1;curveFitting=1;jiggle=2;" parent="1" source="32EfeAnbv8p_S3MVI69l-1" target="32EfeAnbv8p_S3MVI69l-4" edge="1">
          <mxGeometry relative="1" as="geometry" />
        </mxCell>
        <mxCell id="32EfeAnbv8p_S3MVI69l-9" value="" style="group;sketch=1;curveFitting=1;jiggle=2;fillColor=default;" parent="1" vertex="1" connectable="0">
          <mxGeometry x="563" y="10" width="94" height="113" as="geometry" />
        </mxCell>
        <mxCell id="32EfeAnbv8p_S3MVI69l-4" value="" style="shape=note;whiteSpace=wrap;html=1;backgroundOutline=1;darkOpacity=0.05;fontSize=16;fillColor=default;strokeColor=#36393d;sketch=1;curveFitting=1;jiggle=2;" parent="32EfeAnbv8p_S3MVI69l-9" vertex="1">
          <mxGeometry y="13" width="80" height="100" as="geometry" />
        </mxCell>
        <mxCell id="32EfeAnbv8p_S3MVI69l-5" value="marry had a little lamb&lt;br&gt;...&lt;br&gt;..." style="shape=note;whiteSpace=wrap;html=1;backgroundOutline=1;darkOpacity=0.05;fontSize=9;fillColor=default;strokeColor=#36393d;fontFamily=menlo;align=left;spacing=5;sketch=1;curveFitting=1;jiggle=2;" parent="32EfeAnbv8p_S3MVI69l-9" vertex="1">
          <mxGeometry x="7" y="7" width="80" height="100" as="geometry" />
        </mxCell>
        <mxCell id="32EfeAnbv8p_S3MVI69l-8" value="marry had a little lamb&lt;br&gt;...&lt;br&gt;..." style="shape=note;whiteSpace=wrap;html=1;backgroundOutline=1;darkOpacity=0.05;fontSize=9;fillColor=default;strokeColor=#36393d;fontFamily=menlo;align=left;spacing=5;sketch=1;curveFitting=1;jiggle=2;fillStyle=solid;" parent="32EfeAnbv8p_S3MVI69l-9" vertex="1">
          <mxGeometry x="14" width="80" height="100" as="geometry" />
        </mxCell>
        <mxCell id="32EfeAnbv8p_S3MVI69l-68" style="edgeStyle=none;curved=1;rounded=0;orthogonalLoop=1;jettySize=auto;html=1;entryX=0;entryY=0.5;entryDx=0;entryDy=0;fontSize=12;fillColor=#fff2cc;strokeColor=#d6b656;strokeWidth=1;sketch=1;curveFitting=1;jiggle=2;" parent="1" source="32EfeAnbv8p_S3MVI69l-10" target="32EfeAnbv8p_S3MVI69l-56" edge="1">
          <mxGeometry relative="1" as="geometry" />
        </mxCell>
        <mxCell id="32EfeAnbv8p_S3MVI69l-72" value="" style="edgeStyle=orthogonalEdgeStyle;curved=1;rounded=0;orthogonalLoop=1;jettySize=auto;html=1;fontSize=12;startSize=8;endSize=8;fontFamily=Comic Sans MS;fontColor=#000099;sketch=1;curveFitting=1;jiggle=2;fontStyle=0;entryX=0;entryY=0.5;entryDx=0;entryDy=0;exitX=0.5;exitY=1;exitDx=0;exitDy=0;" parent="1" source="32EfeAnbv8p_S3MVI69l-10" target="32EfeAnbv8p_S3MVI69l-71" edge="1">
          <mxGeometry relative="1" as="geometry" />
        </mxCell>
        <mxCell id="32EfeAnbv8p_S3MVI69l-10" value="For the concepts occurring in the same text chunk add a contextual proximity relationship&amp;nbsp;&amp;nbsp;" style="rounded=1;whiteSpace=wrap;html=1;fontSize=16;fillColor=#dae8fc;strokeColor=#6c8ebf;fontFamily=Comic Sans MS;sketch=1;curveFitting=1;jiggle=2;fontStyle=0;fontColor=#004C99;" parent="1" vertex="1">
          <mxGeometry x="138.5" y="323.5" width="229" height="97" as="geometry" />
        </mxCell>
        <mxCell id="32EfeAnbv8p_S3MVI69l-12" value="Assets" style="childLayout=tableLayout;recursiveResize=0;strokeColor=#98bf21;fillColor=#C6F065;shadow=0;fontSize=11;sketch=1;curveFitting=1;jiggle=2;fontColor=#4D4D4D;rounded=0;swimlaneLine=0;fillStyle=hachure;" parent="1" vertex="1">
          <mxGeometry x="443" y="158" width="325.5" height="137" as="geometry" />
        </mxCell>
        <mxCell id="32EfeAnbv8p_S3MVI69l-13" style="shape=tableRow;horizontal=0;startSize=0;swimlaneHead=0;swimlaneBody=0;top=0;left=0;bottom=0;right=0;dropTarget=0;collapsible=0;recursiveResize=0;expand=0;fontStyle=0;strokeColor=inherit;fillColor=#ffffff;fontSize=11;sketch=1;curveFitting=1;jiggle=2;fontColor=#4D4D4D;rounded=0;shadow=0;swimlaneLine=0;" parent="32EfeAnbv8p_S3MVI69l-12" vertex="1">
          <mxGeometry width="325.5" height="35" as="geometry" />
        </mxCell>
        <mxCell id="32EfeAnbv8p_S3MVI69l-14" value="node_1" style="connectable=0;recursiveResize=0;strokeColor=inherit;fillColor=#A7C942;align=center;fontStyle=1;fontColor=#4D4D4D;html=1;fontSize=11;sketch=1;curveFitting=1;jiggle=2;rounded=0;shadow=0;swimlaneLine=0;" parent="32EfeAnbv8p_S3MVI69l-13" vertex="1">
          <mxGeometry width="53" height="35" as="geometry">
            <mxRectangle width="53" height="35" as="alternateBounds" />
          </mxGeometry>
        </mxCell>
        <mxCell id="32EfeAnbv8p_S3MVI69l-15" value="node_2" style="connectable=0;recursiveResize=0;strokeColor=inherit;fillColor=#A7C942;align=center;fontStyle=1;fontColor=#4D4D4D;html=1;fontSize=11;sketch=1;curveFitting=1;jiggle=2;rounded=0;shadow=0;swimlaneLine=0;" parent="32EfeAnbv8p_S3MVI69l-13" vertex="1">
          <mxGeometry x="53" width="61" height="35" as="geometry">
            <mxRectangle width="61" height="35" as="alternateBounds" />
          </mxGeometry>
        </mxCell>
        <mxCell id="32EfeAnbv8p_S3MVI69l-16" value="Relation" style="connectable=0;recursiveResize=0;strokeColor=inherit;fillColor=#A7C942;align=center;fontStyle=1;fontColor=#4D4D4D;html=1;fontSize=11;sketch=1;curveFitting=1;jiggle=2;rounded=0;shadow=0;swimlaneLine=0;" parent="32EfeAnbv8p_S3MVI69l-13" vertex="1">
          <mxGeometry x="114" width="88" height="35" as="geometry">
            <mxRectangle width="88" height="35" as="alternateBounds" />
          </mxGeometry>
        </mxCell>
        <mxCell id="32EfeAnbv8p_S3MVI69l-33" value="Weight" style="connectable=0;recursiveResize=0;strokeColor=inherit;fillColor=#A7C942;align=center;fontStyle=1;fontColor=#4D4D4D;html=1;fontSize=11;sketch=1;curveFitting=1;jiggle=2;rounded=0;shadow=0;swimlaneLine=0;" parent="32EfeAnbv8p_S3MVI69l-13" vertex="1">
          <mxGeometry x="202" width="68" height="35" as="geometry">
            <mxRectangle width="68" height="35" as="alternateBounds" />
          </mxGeometry>
        </mxCell>
        <mxCell id="32EfeAnbv8p_S3MVI69l-38" value="chunk_id" style="connectable=0;recursiveResize=0;strokeColor=inherit;fillColor=#A7C942;align=center;fontStyle=1;fontColor=#4D4D4D;html=1;fontSize=11;sketch=1;curveFitting=1;jiggle=2;rounded=0;shadow=0;swimlaneLine=0;" parent="32EfeAnbv8p_S3MVI69l-13" vertex="1">
          <mxGeometry x="270" width="56" height="35" as="geometry">
            <mxRectangle width="56" height="35" as="alternateBounds" />
          </mxGeometry>
        </mxCell>
        <mxCell id="32EfeAnbv8p_S3MVI69l-17" value="" style="shape=tableRow;horizontal=0;startSize=0;swimlaneHead=0;swimlaneBody=0;top=0;left=0;bottom=0;right=0;dropTarget=0;collapsible=0;recursiveResize=0;expand=0;fontStyle=0;strokeColor=inherit;fillColor=#ffffff;fontSize=11;sketch=1;curveFitting=1;jiggle=2;fontColor=#4D4D4D;rounded=0;shadow=0;swimlaneLine=0;" parent="32EfeAnbv8p_S3MVI69l-12" vertex="1">
          <mxGeometry y="35" width="325.5" height="34" as="geometry" />
        </mxCell>
        <mxCell id="32EfeAnbv8p_S3MVI69l-18" value="Marry" style="connectable=0;recursiveResize=0;strokeColor=inherit;fillColor=inherit;align=center;whiteSpace=wrap;html=1;fontSize=11;sketch=1;curveFitting=1;jiggle=2;fontColor=#4D4D4D;rounded=0;shadow=0;swimlaneLine=0;" parent="32EfeAnbv8p_S3MVI69l-17" vertex="1">
          <mxGeometry width="53" height="34" as="geometry">
            <mxRectangle width="53" height="34" as="alternateBounds" />
          </mxGeometry>
        </mxCell>
        <mxCell id="32EfeAnbv8p_S3MVI69l-19" value="Lamb" style="connectable=0;recursiveResize=0;strokeColor=inherit;fillColor=inherit;align=center;whiteSpace=wrap;html=1;fontSize=11;sketch=1;curveFitting=1;jiggle=2;fontColor=#4D4D4D;rounded=0;shadow=0;swimlaneLine=0;" parent="32EfeAnbv8p_S3MVI69l-17" vertex="1">
          <mxGeometry x="53" width="61" height="34" as="geometry">
            <mxRectangle width="61" height="34" as="alternateBounds" />
          </mxGeometry>
        </mxCell>
        <mxCell id="32EfeAnbv8p_S3MVI69l-20" value="Eats" style="connectable=0;recursiveResize=0;strokeColor=inherit;fillColor=inherit;align=center;whiteSpace=wrap;html=1;fontSize=11;sketch=1;curveFitting=1;jiggle=2;fontColor=#4D4D4D;rounded=0;shadow=0;swimlaneLine=0;" parent="32EfeAnbv8p_S3MVI69l-17" vertex="1">
          <mxGeometry x="114" width="88" height="34" as="geometry">
            <mxRectangle width="88" height="34" as="alternateBounds" />
          </mxGeometry>
        </mxCell>
        <mxCell id="32EfeAnbv8p_S3MVI69l-34" value="W1" style="connectable=0;recursiveResize=0;strokeColor=inherit;fillColor=inherit;align=center;whiteSpace=wrap;html=1;fontSize=11;sketch=1;curveFitting=1;jiggle=2;fontColor=#4D4D4D;rounded=0;shadow=0;swimlaneLine=0;" parent="32EfeAnbv8p_S3MVI69l-17" vertex="1">
          <mxGeometry x="202" width="68" height="34" as="geometry">
            <mxRectangle width="68" height="34" as="alternateBounds" />
          </mxGeometry>
        </mxCell>
        <mxCell id="32EfeAnbv8p_S3MVI69l-39" value="123" style="connectable=0;recursiveResize=0;strokeColor=inherit;fillColor=inherit;align=center;whiteSpace=wrap;html=1;fontSize=11;sketch=1;curveFitting=1;jiggle=2;fontColor=#4D4D4D;rounded=0;shadow=0;swimlaneLine=0;" parent="32EfeAnbv8p_S3MVI69l-17" vertex="1">
          <mxGeometry x="270" width="56" height="34" as="geometry">
            <mxRectangle width="56" height="34" as="alternateBounds" />
          </mxGeometry>
        </mxCell>
        <mxCell id="32EfeAnbv8p_S3MVI69l-21" value="" style="shape=tableRow;horizontal=0;startSize=0;swimlaneHead=0;swimlaneBody=0;top=0;left=0;bottom=0;right=0;dropTarget=0;collapsible=0;recursiveResize=0;expand=0;fontStyle=1;strokeColor=inherit;fillColor=#EAF2D3;fontSize=11;sketch=1;curveFitting=1;jiggle=2;fontColor=#4D4D4D;rounded=0;shadow=0;swimlaneLine=0;" parent="32EfeAnbv8p_S3MVI69l-12" vertex="1">
          <mxGeometry y="69" width="325.5" height="34" as="geometry" />
        </mxCell>
        <mxCell id="32EfeAnbv8p_S3MVI69l-22" value="Lamb" style="connectable=0;recursiveResize=0;strokeColor=inherit;fillColor=inherit;whiteSpace=wrap;html=1;fontSize=11;sketch=1;curveFitting=1;jiggle=2;fontColor=#4D4D4D;rounded=0;shadow=0;swimlaneLine=0;" parent="32EfeAnbv8p_S3MVI69l-21" vertex="1">
          <mxGeometry width="53" height="34" as="geometry">
            <mxRectangle width="53" height="34" as="alternateBounds" />
          </mxGeometry>
        </mxCell>
        <mxCell id="32EfeAnbv8p_S3MVI69l-23" value="Food" style="connectable=0;recursiveResize=0;strokeColor=inherit;fillColor=inherit;whiteSpace=wrap;html=1;fontSize=11;sketch=1;curveFitting=1;jiggle=2;fontColor=#4D4D4D;rounded=0;shadow=0;swimlaneLine=0;" parent="32EfeAnbv8p_S3MVI69l-21" vertex="1">
          <mxGeometry x="53" width="61" height="34" as="geometry">
            <mxRectangle width="61" height="34" as="alternateBounds" />
          </mxGeometry>
        </mxCell>
        <mxCell id="32EfeAnbv8p_S3MVI69l-24" value="Is" style="connectable=0;recursiveResize=0;strokeColor=inherit;fillColor=inherit;whiteSpace=wrap;html=1;fontSize=11;sketch=1;curveFitting=1;jiggle=2;fontColor=#4D4D4D;rounded=0;shadow=0;swimlaneLine=0;" parent="32EfeAnbv8p_S3MVI69l-21" vertex="1">
          <mxGeometry x="114" width="88" height="34" as="geometry">
            <mxRectangle width="88" height="34" as="alternateBounds" />
          </mxGeometry>
        </mxCell>
        <mxCell id="32EfeAnbv8p_S3MVI69l-35" value="W1" style="connectable=0;recursiveResize=0;strokeColor=inherit;fillColor=inherit;whiteSpace=wrap;html=1;fontSize=11;sketch=1;curveFitting=1;jiggle=2;fontColor=#4D4D4D;rounded=0;shadow=0;swimlaneLine=0;" parent="32EfeAnbv8p_S3MVI69l-21" vertex="1">
          <mxGeometry x="202" width="68" height="34" as="geometry">
            <mxRectangle width="68" height="34" as="alternateBounds" />
          </mxGeometry>
        </mxCell>
        <mxCell id="32EfeAnbv8p_S3MVI69l-40" value="234" style="connectable=0;recursiveResize=0;strokeColor=inherit;fillColor=inherit;whiteSpace=wrap;html=1;fontSize=11;sketch=1;curveFitting=1;jiggle=2;fontColor=#4D4D4D;rounded=0;shadow=0;swimlaneLine=0;" parent="32EfeAnbv8p_S3MVI69l-21" vertex="1">
          <mxGeometry x="270" width="56" height="34" as="geometry">
            <mxRectangle width="56" height="34" as="alternateBounds" />
          </mxGeometry>
        </mxCell>
        <mxCell id="32EfeAnbv8p_S3MVI69l-25" value="" style="shape=tableRow;horizontal=0;startSize=0;swimlaneHead=0;swimlaneBody=0;top=0;left=0;bottom=0;right=0;dropTarget=0;collapsible=0;recursiveResize=0;expand=0;fontStyle=0;strokeColor=inherit;fillColor=#ffffff;fontSize=11;sketch=1;curveFitting=1;jiggle=2;fontColor=#4D4D4D;rounded=0;shadow=0;swimlaneLine=0;" parent="32EfeAnbv8p_S3MVI69l-12" vertex="1">
          <mxGeometry y="103" width="325.5" height="34" as="geometry" />
        </mxCell>
        <mxCell id="32EfeAnbv8p_S3MVI69l-26" value="..." style="connectable=0;recursiveResize=0;strokeColor=inherit;fillColor=inherit;fontStyle=0;align=center;whiteSpace=wrap;html=1;fontSize=11;sketch=1;curveFitting=1;jiggle=2;fontColor=#4D4D4D;rounded=0;shadow=0;swimlaneLine=0;" parent="32EfeAnbv8p_S3MVI69l-25" vertex="1">
          <mxGeometry width="53" height="34" as="geometry">
            <mxRectangle width="53" height="34" as="alternateBounds" />
          </mxGeometry>
        </mxCell>
        <mxCell id="32EfeAnbv8p_S3MVI69l-27" value="..." style="connectable=0;recursiveResize=0;strokeColor=inherit;fillColor=inherit;fontStyle=0;align=center;whiteSpace=wrap;html=1;fontSize=11;sketch=1;curveFitting=1;jiggle=2;fontColor=#4D4D4D;rounded=0;shadow=0;swimlaneLine=0;" parent="32EfeAnbv8p_S3MVI69l-25" vertex="1">
          <mxGeometry x="53" width="61" height="34" as="geometry">
            <mxRectangle width="61" height="34" as="alternateBounds" />
          </mxGeometry>
        </mxCell>
        <mxCell id="32EfeAnbv8p_S3MVI69l-28" value="..." style="connectable=0;recursiveResize=0;strokeColor=inherit;fillColor=inherit;fontStyle=0;align=center;whiteSpace=wrap;html=1;fontSize=11;sketch=1;curveFitting=1;jiggle=2;fontColor=#4D4D4D;rounded=0;shadow=0;swimlaneLine=0;" parent="32EfeAnbv8p_S3MVI69l-25" vertex="1">
          <mxGeometry x="114" width="88" height="34" as="geometry">
            <mxRectangle width="88" height="34" as="alternateBounds" />
          </mxGeometry>
        </mxCell>
        <mxCell id="32EfeAnbv8p_S3MVI69l-36" value="..." style="connectable=0;recursiveResize=0;strokeColor=inherit;fillColor=inherit;fontStyle=0;align=center;whiteSpace=wrap;html=1;fontSize=11;sketch=1;curveFitting=1;jiggle=2;fontColor=#4D4D4D;rounded=0;shadow=0;swimlaneLine=0;" parent="32EfeAnbv8p_S3MVI69l-25" vertex="1">
          <mxGeometry x="202" width="68" height="34" as="geometry">
            <mxRectangle width="68" height="34" as="alternateBounds" />
          </mxGeometry>
        </mxCell>
        <mxCell id="32EfeAnbv8p_S3MVI69l-41" style="connectable=0;recursiveResize=0;strokeColor=inherit;fillColor=inherit;fontStyle=0;align=center;whiteSpace=wrap;html=1;fontSize=11;sketch=1;curveFitting=1;jiggle=2;fontColor=#4D4D4D;rounded=0;shadow=0;swimlaneLine=0;" parent="32EfeAnbv8p_S3MVI69l-25" vertex="1">
          <mxGeometry x="270" width="56" height="34" as="geometry">
            <mxRectangle width="56" height="34" as="alternateBounds" />
          </mxGeometry>
        </mxCell>
        <mxCell id="32EfeAnbv8p_S3MVI69l-3" value="" style="edgeStyle=none;curved=1;rounded=0;orthogonalLoop=1;jettySize=auto;html=1;fontSize=12;exitX=0.025;exitY=0.815;exitDx=0;exitDy=0;exitPerimeter=0;fillColor=#fff2cc;strokeColor=#d6b656;strokeWidth=1;sketch=1;curveFitting=1;jiggle=2;" parent="1" source="32EfeAnbv8p_S3MVI69l-8" target="32EfeAnbv8p_S3MVI69l-2" edge="1">
          <mxGeometry relative="1" as="geometry">
            <mxPoint x="148" y="134" as="sourcePoint" />
          </mxGeometry>
        </mxCell>
        <mxCell id="32EfeAnbv8p_S3MVI69l-7" value="For each chunk" style="edgeLabel;html=1;align=center;verticalAlign=middle;resizable=0;points=[];fontSize=12;fontColor=#4D4D4D;fontFamily=monaco;" parent="32EfeAnbv8p_S3MVI69l-3" vertex="1" connectable="0">
          <mxGeometry x="-0.0189" y="-1" relative="1" as="geometry">
            <mxPoint x="-9" y="-9" as="offset" />
          </mxGeometry>
        </mxCell>
        <mxCell id="PIKaR7FMq6GDjSDADch5-1" value="" style="edgeStyle=none;curved=1;rounded=0;orthogonalLoop=1;jettySize=auto;html=1;fontSize=12;startSize=8;endSize=8;exitX=0.5;exitY=1;exitDx=0;exitDy=0;sketch=1;curveFitting=1;jiggle=2;" parent="1" source="PIKaR7FMq6GDjSDADch5-2" target="32EfeAnbv8p_S3MVI69l-76" edge="1">
          <mxGeometry relative="1" as="geometry" />
        </mxCell>
        <mxCell id="PIKaR7FMq6GDjSDADch5-3" value="" style="edgeStyle=none;curved=1;rounded=0;orthogonalLoop=1;jettySize=auto;html=1;fontSize=12;startSize=8;endSize=8;sketch=1;curveFitting=1;jiggle=2;" parent="1" source="32EfeAnbv8p_S3MVI69l-71" target="PIKaR7FMq6GDjSDADch5-2" edge="1">
          <mxGeometry relative="1" as="geometry" />
        </mxCell>
        <mxCell id="32EfeAnbv8p_S3MVI69l-71" value="Concatenate the two dataframes" style="rounded=1;whiteSpace=wrap;html=1;fontSize=16;fillColor=#dae8fc;strokeColor=#6c8ebf;fontFamily=Comic Sans MS;sketch=1;curveFitting=1;jiggle=2;fontStyle=0;fontColor=#004C99;" parent="1" vertex="1">
          <mxGeometry x="441" y="499" width="159" height="53" as="geometry" />
        </mxCell>
        <mxCell id="32EfeAnbv8p_S3MVI69l-73" value="" style="edgeStyle=none;curved=1;rounded=0;orthogonalLoop=1;jettySize=auto;html=1;fontSize=12;exitX=0.25;exitY=1;exitDx=0;exitDy=0;fillColor=#fff2cc;strokeColor=#d6b656;strokeWidth=1;sketch=1;curveFitting=1;jiggle=2;entryX=0.5;entryY=0;entryDx=0;entryDy=0;" parent="1" source="32EfeAnbv8p_S3MVI69l-62" target="32EfeAnbv8p_S3MVI69l-71" edge="1">
          <mxGeometry relative="1" as="geometry">
            <mxPoint x="582" y="247" as="sourcePoint" />
            <mxPoint x="378" y="334" as="targetPoint" />
          </mxGeometry>
        </mxCell>
        <mxCell id="32EfeAnbv8p_S3MVI69l-43" value="Assets" style="childLayout=tableLayout;recursiveResize=0;strokeColor=#98bf21;fillColor=#C6F065;shadow=0;fontSize=11;sketch=1;curveFitting=1;jiggle=2;fontColor=#4D4D4D;rounded=0;swimlaneLine=0;fillStyle=hachure;" parent="1" vertex="1">
          <mxGeometry x="443" y="319" width="326" height="127.5" as="geometry" />
        </mxCell>
        <mxCell id="32EfeAnbv8p_S3MVI69l-44" style="shape=tableRow;horizontal=0;startSize=0;swimlaneHead=0;swimlaneBody=0;top=0;left=0;bottom=0;right=0;dropTarget=0;collapsible=0;recursiveResize=0;expand=0;fontStyle=0;strokeColor=inherit;fillColor=#ffffff;fontSize=11;sketch=1;curveFitting=1;jiggle=2;fontColor=#4D4D4D;rounded=0;shadow=0;swimlaneLine=0;" parent="32EfeAnbv8p_S3MVI69l-43" vertex="1">
          <mxGeometry width="326" height="32" as="geometry" />
        </mxCell>
        <mxCell id="32EfeAnbv8p_S3MVI69l-45" value="node_1" style="connectable=0;recursiveResize=0;strokeColor=inherit;fillColor=#A7C942;align=center;fontStyle=1;fontColor=#4D4D4D;html=1;fontSize=11;sketch=1;curveFitting=1;jiggle=2;rounded=0;shadow=0;swimlaneLine=0;" parent="32EfeAnbv8p_S3MVI69l-44" vertex="1">
          <mxGeometry width="53" height="32" as="geometry">
            <mxRectangle width="53" height="32" as="alternateBounds" />
          </mxGeometry>
        </mxCell>
        <mxCell id="32EfeAnbv8p_S3MVI69l-46" value="node_2" style="connectable=0;recursiveResize=0;strokeColor=inherit;fillColor=#A7C942;align=center;fontStyle=1;fontColor=#4D4D4D;html=1;fontSize=11;sketch=1;curveFitting=1;jiggle=2;rounded=0;shadow=0;swimlaneLine=0;" parent="32EfeAnbv8p_S3MVI69l-44" vertex="1">
          <mxGeometry x="53" width="59" height="32" as="geometry">
            <mxRectangle width="59" height="32" as="alternateBounds" />
          </mxGeometry>
        </mxCell>
        <mxCell id="32EfeAnbv8p_S3MVI69l-47" value="Relation" style="connectable=0;recursiveResize=0;strokeColor=inherit;fillColor=#A7C942;align=center;fontStyle=1;fontColor=#4D4D4D;html=1;fontSize=11;sketch=1;curveFitting=1;jiggle=2;rounded=0;shadow=0;swimlaneLine=0;" parent="32EfeAnbv8p_S3MVI69l-44" vertex="1">
          <mxGeometry x="112" width="110" height="32" as="geometry">
            <mxRectangle width="110" height="32" as="alternateBounds" />
          </mxGeometry>
        </mxCell>
        <mxCell id="32EfeAnbv8p_S3MVI69l-48" value="Weight" style="connectable=0;recursiveResize=0;strokeColor=inherit;fillColor=#A7C942;align=center;fontStyle=1;fontColor=#4D4D4D;html=1;fontSize=11;sketch=1;curveFitting=1;jiggle=2;rounded=0;shadow=0;swimlaneLine=0;" parent="32EfeAnbv8p_S3MVI69l-44" vertex="1">
          <mxGeometry x="222" width="49" height="32" as="geometry">
            <mxRectangle width="49" height="32" as="alternateBounds" />
          </mxGeometry>
        </mxCell>
        <mxCell id="32EfeAnbv8p_S3MVI69l-49" value="chunk_id" style="connectable=0;recursiveResize=0;strokeColor=inherit;fillColor=#A7C942;align=center;fontStyle=1;fontColor=#4D4D4D;html=1;fontSize=11;sketch=1;curveFitting=1;jiggle=2;rounded=0;shadow=0;swimlaneLine=0;" parent="32EfeAnbv8p_S3MVI69l-44" vertex="1">
          <mxGeometry x="271" width="55" height="32" as="geometry">
            <mxRectangle width="55" height="32" as="alternateBounds" />
          </mxGeometry>
        </mxCell>
        <mxCell id="32EfeAnbv8p_S3MVI69l-50" value="" style="shape=tableRow;horizontal=0;startSize=0;swimlaneHead=0;swimlaneBody=0;top=0;left=0;bottom=0;right=0;dropTarget=0;collapsible=0;recursiveResize=0;expand=0;fontStyle=0;strokeColor=inherit;fillColor=#ffffff;fontSize=11;sketch=1;curveFitting=1;jiggle=2;fontColor=#4D4D4D;rounded=0;shadow=0;swimlaneLine=0;" parent="32EfeAnbv8p_S3MVI69l-43" vertex="1">
          <mxGeometry y="32" width="326" height="32" as="geometry" />
        </mxCell>
        <mxCell id="32EfeAnbv8p_S3MVI69l-51" value="Marry" style="connectable=0;recursiveResize=0;strokeColor=inherit;fillColor=inherit;align=center;whiteSpace=wrap;html=1;fontSize=11;sketch=1;curveFitting=1;jiggle=2;fontColor=#4D4D4D;rounded=0;shadow=0;swimlaneLine=0;" parent="32EfeAnbv8p_S3MVI69l-50" vertex="1">
          <mxGeometry width="53" height="32" as="geometry">
            <mxRectangle width="53" height="32" as="alternateBounds" />
          </mxGeometry>
        </mxCell>
        <mxCell id="32EfeAnbv8p_S3MVI69l-52" value="Lamb" style="connectable=0;recursiveResize=0;strokeColor=inherit;fillColor=inherit;align=center;whiteSpace=wrap;html=1;fontSize=11;sketch=1;curveFitting=1;jiggle=2;fontColor=#4D4D4D;rounded=0;shadow=0;swimlaneLine=0;" parent="32EfeAnbv8p_S3MVI69l-50" vertex="1">
          <mxGeometry x="53" width="59" height="32" as="geometry">
            <mxRectangle width="59" height="32" as="alternateBounds" />
          </mxGeometry>
        </mxCell>
        <mxCell id="32EfeAnbv8p_S3MVI69l-53" value="Contextual&amp;nbsp; Proximity" style="connectable=0;recursiveResize=0;strokeColor=inherit;fillColor=inherit;align=center;whiteSpace=wrap;html=1;fontSize=11;sketch=1;curveFitting=1;jiggle=2;fontColor=#4D4D4D;rounded=0;shadow=0;swimlaneLine=0;" parent="32EfeAnbv8p_S3MVI69l-50" vertex="1">
          <mxGeometry x="112" width="110" height="32" as="geometry">
            <mxRectangle width="110" height="32" as="alternateBounds" />
          </mxGeometry>
        </mxCell>
        <mxCell id="32EfeAnbv8p_S3MVI69l-54" value="W2" style="connectable=0;recursiveResize=0;strokeColor=inherit;fillColor=inherit;align=center;whiteSpace=wrap;html=1;fontSize=11;sketch=1;curveFitting=1;jiggle=2;fontColor=#4D4D4D;rounded=0;shadow=0;swimlaneLine=0;" parent="32EfeAnbv8p_S3MVI69l-50" vertex="1">
          <mxGeometry x="222" width="49" height="32" as="geometry">
            <mxRectangle width="49" height="32" as="alternateBounds" />
          </mxGeometry>
        </mxCell>
        <mxCell id="32EfeAnbv8p_S3MVI69l-55" value="345" style="connectable=0;recursiveResize=0;strokeColor=inherit;fillColor=inherit;align=center;whiteSpace=wrap;html=1;fontSize=11;sketch=1;curveFitting=1;jiggle=2;fontColor=#4D4D4D;rounded=0;shadow=0;swimlaneLine=0;" parent="32EfeAnbv8p_S3MVI69l-50" vertex="1">
          <mxGeometry x="271" width="55" height="32" as="geometry">
            <mxRectangle width="55" height="32" as="alternateBounds" />
          </mxGeometry>
        </mxCell>
        <mxCell id="32EfeAnbv8p_S3MVI69l-56" value="" style="shape=tableRow;horizontal=0;startSize=0;swimlaneHead=0;swimlaneBody=0;top=0;left=0;bottom=0;right=0;dropTarget=0;collapsible=0;recursiveResize=0;expand=0;fontStyle=1;strokeColor=inherit;fillColor=#EAF2D3;fontSize=11;sketch=1;curveFitting=1;jiggle=2;fontColor=#4D4D4D;rounded=0;shadow=0;swimlaneLine=0;" parent="32EfeAnbv8p_S3MVI69l-43" vertex="1">
          <mxGeometry y="64" width="326" height="32" as="geometry" />
        </mxCell>
        <mxCell id="32EfeAnbv8p_S3MVI69l-57" value="Marry" style="connectable=0;recursiveResize=0;strokeColor=inherit;fillColor=inherit;whiteSpace=wrap;html=1;fontSize=11;sketch=1;curveFitting=1;jiggle=2;fontColor=#4D4D4D;rounded=0;shadow=0;swimlaneLine=0;" parent="32EfeAnbv8p_S3MVI69l-56" vertex="1">
          <mxGeometry width="53" height="32" as="geometry">
            <mxRectangle width="53" height="32" as="alternateBounds" />
          </mxGeometry>
        </mxCell>
        <mxCell id="32EfeAnbv8p_S3MVI69l-58" value="Plate" style="connectable=0;recursiveResize=0;strokeColor=inherit;fillColor=inherit;whiteSpace=wrap;html=1;fontSize=11;sketch=1;curveFitting=1;jiggle=2;fontColor=#4D4D4D;rounded=0;shadow=0;swimlaneLine=0;" parent="32EfeAnbv8p_S3MVI69l-56" vertex="1">
          <mxGeometry x="53" width="59" height="32" as="geometry">
            <mxRectangle width="59" height="32" as="alternateBounds" />
          </mxGeometry>
        </mxCell>
        <mxCell id="32EfeAnbv8p_S3MVI69l-59" value="Contextual Proximity" style="connectable=0;recursiveResize=0;strokeColor=inherit;fillColor=inherit;whiteSpace=wrap;html=1;fontSize=11;sketch=1;curveFitting=1;jiggle=2;fontColor=#4D4D4D;rounded=0;shadow=0;swimlaneLine=0;" parent="32EfeAnbv8p_S3MVI69l-56" vertex="1">
          <mxGeometry x="112" width="110" height="32" as="geometry">
            <mxRectangle width="110" height="32" as="alternateBounds" />
          </mxGeometry>
        </mxCell>
        <mxCell id="32EfeAnbv8p_S3MVI69l-60" value="W2" style="connectable=0;recursiveResize=0;strokeColor=inherit;fillColor=inherit;whiteSpace=wrap;html=1;fontSize=11;sketch=1;curveFitting=1;jiggle=2;fontColor=#4D4D4D;rounded=0;shadow=0;swimlaneLine=0;" parent="32EfeAnbv8p_S3MVI69l-56" vertex="1">
          <mxGeometry x="222" width="49" height="32" as="geometry">
            <mxRectangle width="49" height="32" as="alternateBounds" />
          </mxGeometry>
        </mxCell>
        <mxCell id="32EfeAnbv8p_S3MVI69l-61" value="456" style="connectable=0;recursiveResize=0;strokeColor=inherit;fillColor=inherit;whiteSpace=wrap;html=1;fontSize=11;sketch=1;curveFitting=1;jiggle=2;fontColor=#4D4D4D;rounded=0;shadow=0;swimlaneLine=0;" parent="32EfeAnbv8p_S3MVI69l-56" vertex="1">
          <mxGeometry x="271" width="55" height="32" as="geometry">
            <mxRectangle width="55" height="32" as="alternateBounds" />
          </mxGeometry>
        </mxCell>
        <mxCell id="32EfeAnbv8p_S3MVI69l-62" value="" style="shape=tableRow;horizontal=0;startSize=0;swimlaneHead=0;swimlaneBody=0;top=0;left=0;bottom=0;right=0;dropTarget=0;collapsible=0;recursiveResize=0;expand=0;fontStyle=0;strokeColor=inherit;fillColor=#ffffff;fontSize=11;sketch=1;curveFitting=1;jiggle=2;fontColor=#4D4D4D;rounded=0;shadow=0;swimlaneLine=0;" parent="32EfeAnbv8p_S3MVI69l-43" vertex="1">
          <mxGeometry y="96" width="326" height="32" as="geometry" />
        </mxCell>
        <mxCell id="32EfeAnbv8p_S3MVI69l-63" value="..." style="connectable=0;recursiveResize=0;strokeColor=inherit;fillColor=inherit;fontStyle=0;align=center;whiteSpace=wrap;html=1;fontSize=11;sketch=1;curveFitting=1;jiggle=2;fontColor=#4D4D4D;rounded=0;shadow=0;swimlaneLine=0;" parent="32EfeAnbv8p_S3MVI69l-62" vertex="1">
          <mxGeometry width="53" height="32" as="geometry">
            <mxRectangle width="53" height="32" as="alternateBounds" />
          </mxGeometry>
        </mxCell>
        <mxCell id="32EfeAnbv8p_S3MVI69l-64" value="..." style="connectable=0;recursiveResize=0;strokeColor=inherit;fillColor=inherit;fontStyle=0;align=center;whiteSpace=wrap;html=1;fontSize=11;sketch=1;curveFitting=1;jiggle=2;fontColor=#4D4D4D;rounded=0;shadow=0;swimlaneLine=0;" parent="32EfeAnbv8p_S3MVI69l-62" vertex="1">
          <mxGeometry x="53" width="59" height="32" as="geometry">
            <mxRectangle width="59" height="32" as="alternateBounds" />
          </mxGeometry>
        </mxCell>
        <mxCell id="32EfeAnbv8p_S3MVI69l-65" value="..." style="connectable=0;recursiveResize=0;strokeColor=inherit;fillColor=inherit;fontStyle=0;align=center;whiteSpace=wrap;html=1;fontSize=11;sketch=1;curveFitting=1;jiggle=2;fontColor=#4D4D4D;rounded=0;shadow=0;swimlaneLine=0;" parent="32EfeAnbv8p_S3MVI69l-62" vertex="1">
          <mxGeometry x="112" width="110" height="32" as="geometry">
            <mxRectangle width="110" height="32" as="alternateBounds" />
          </mxGeometry>
        </mxCell>
        <mxCell id="32EfeAnbv8p_S3MVI69l-66" value="..." style="connectable=0;recursiveResize=0;strokeColor=inherit;fillColor=inherit;fontStyle=0;align=center;whiteSpace=wrap;html=1;fontSize=11;sketch=1;curveFitting=1;jiggle=2;fontColor=#4D4D4D;rounded=0;shadow=0;swimlaneLine=0;" parent="32EfeAnbv8p_S3MVI69l-62" vertex="1">
          <mxGeometry x="222" width="49" height="32" as="geometry">
            <mxRectangle width="49" height="32" as="alternateBounds" />
          </mxGeometry>
        </mxCell>
        <mxCell id="32EfeAnbv8p_S3MVI69l-67" style="connectable=0;recursiveResize=0;strokeColor=inherit;fillColor=inherit;fontStyle=0;align=center;whiteSpace=wrap;html=1;fontSize=11;sketch=1;curveFitting=1;jiggle=2;fontColor=#4D4D4D;rounded=0;shadow=0;swimlaneLine=0;" parent="32EfeAnbv8p_S3MVI69l-62" vertex="1">
          <mxGeometry x="271" width="55" height="32" as="geometry">
            <mxRectangle width="55" height="32" as="alternateBounds" />
          </mxGeometry>
        </mxCell>
        <mxCell id="32EfeAnbv8p_S3MVI69l-75" style="edgeStyle=orthogonalEdgeStyle;curved=1;rounded=0;orthogonalLoop=1;jettySize=auto;html=1;entryX=1;entryY=0.5;entryDx=0;entryDy=0;fontSize=12;startSize=8;endSize=8;exitX=1;exitY=0.5;exitDx=0;exitDy=0;strokeColor=#d6b656;fillColor=#fff2cc;strokeWidth=1;sketch=1;curveFitting=1;jiggle=2;" parent="1" source="32EfeAnbv8p_S3MVI69l-21" target="32EfeAnbv8p_S3MVI69l-71" edge="1">
          <mxGeometry relative="1" as="geometry">
            <Array as="points">
              <mxPoint x="809" y="244" />
              <mxPoint x="809" y="525" />
            </Array>
          </mxGeometry>
        </mxCell>
        <mxCell id="32EfeAnbv8p_S3MVI69l-76" value="Final Graph Dataframe" style="rounded=1;whiteSpace=wrap;html=1;fontSize=16;fillColor=#dae8fc;strokeColor=#6c8ebf;fontFamily=Comic Sans MS;sketch=1;curveFitting=1;jiggle=2;fontStyle=0;fontColor=#004C99;shape=ellipse;perimeter=ellipsePerimeter;aspect=fixed;" parent="1" vertex="1">
          <mxGeometry x="458.48" y="686" width="136.03" height="65" as="geometry" />
        </mxCell>
        <mxCell id="PIKaR7FMq6GDjSDADch5-2" value="Group the node pairs, sum their weights and concatenate the relationships" style="rounded=1;whiteSpace=wrap;html=1;fontSize=16;fillColor=#dae8fc;strokeColor=#6c8ebf;fontFamily=Comic Sans MS;sketch=1;curveFitting=1;jiggle=2;fontStyle=0;fontColor=#004C99;" parent="1" vertex="1">
          <mxGeometry x="387" y="586" width="279" height="65" as="geometry" />
        </mxCell>
        <mxCell id="PIKaR7FMq6GDjSDADch5-4" value="1" style="ellipse;whiteSpace=wrap;html=1;aspect=fixed;fontSize=16;fontFamily=Comic Sans MS;fillColor=#dae8fc;strokeColor=#6c8ebf;fontColor=#004C99;rounded=1;sketch=1;curveFitting=1;jiggle=2;fontStyle=0;fillStyle=solid;" parent="1" vertex="1">
          <mxGeometry x="108" y="-17" width="48" height="48" as="geometry" />
        </mxCell>
        <mxCell id="PIKaR7FMq6GDjSDADch5-6" value="2" style="ellipse;whiteSpace=wrap;html=1;aspect=fixed;fontSize=16;fontFamily=Comic Sans MS;fillColor=#dae8fc;strokeColor=#6c8ebf;fontColor=#004C99;rounded=1;sketch=1;curveFitting=1;jiggle=2;fontStyle=0;fillStyle=solid;" parent="1" vertex="1">
          <mxGeometry x="113" y="123" width="48" height="48" as="geometry" />
        </mxCell>
        <mxCell id="PIKaR7FMq6GDjSDADch5-7" value="3" style="ellipse;whiteSpace=wrap;html=1;aspect=fixed;fontSize=16;fontFamily=Comic Sans MS;fillColor=#dae8fc;strokeColor=#6c8ebf;fontColor=#004C99;rounded=1;sketch=1;curveFitting=1;jiggle=2;fontStyle=0;fillStyle=solid;" parent="1" vertex="1">
          <mxGeometry x="108" y="287" width="48" height="48" as="geometry" />
        </mxCell>
        <mxCell id="PIKaR7FMq6GDjSDADch5-8" value="4" style="ellipse;whiteSpace=wrap;html=1;aspect=fixed;fontSize=16;fontFamily=Comic Sans MS;fillColor=#dae8fc;strokeColor=#6c8ebf;fontColor=#004C99;rounded=1;sketch=1;curveFitting=1;jiggle=2;fontStyle=0;fillStyle=solid;" parent="1" vertex="1">
          <mxGeometry x="365" y="565" width="48" height="48" as="geometry" />
        </mxCell>
      </root>
    </mxGraphModel>
  </diagram>
</mxfile>
